<svg width="53" height="48" viewBox="0 0 53 48" fill="none" xmlns="http://www.w3.org/2000/svg">
<path d="M3.75 4.37501C3.75 4.20925 3.81585 4.05027 3.93306 3.93306C4.05027 3.81585 4.20924 3.75001 4.375 3.75001H20C21.725 3.75001 23.125 5.15001 23.125 6.87501V29.2725C23.8342 26.802 25.1194 24.5349 26.875 22.6575V6.87501C26.875 5.15001 28.275 3.75001 30 3.75001H45.625C45.7908 3.75001 45.9497 3.81585 46.0669 3.93306C46.1842 4.05027 46.25 4.20925 46.25 4.37501V19.33C47.6219 20.0452 48.8847 20.9527 50 22.025V4.37501C50 3.21468 49.5391 2.10189 48.7186 1.28141C47.8981 0.460943 46.7853 6.8808e-06 45.625 6.8808e-06H30C28.03 6.8808e-06 26.2525 0.827507 25 2.15751C24.3584 1.47515 23.5836 0.931634 22.7236 0.560544C21.8636 0.189455 20.9366 -0.00132064 20 6.8808e-06H4.375C3.21468 6.8808e-06 2.10188 0.460943 1.28141 1.28141C0.460936 2.10189 0 3.21468 0 4.37501V35.625C0 38.04 1.96 40 4.375 40H20C21.2375 40 22.4 39.675 23.4 39.1C22.9336 37.7576 22.6453 36.3599 22.5425 34.9425C22.2533 35.347 21.8717 35.6767 21.4295 35.9041C20.9873 36.1315 20.4973 36.2501 20 36.25H4.375C4.20924 36.25 4.05027 36.1842 3.93306 36.0669C3.81585 35.9497 3.75 35.7908 3.75 35.625V4.37501Z" fill="white"/>
<path d="M35.0176 32.5C35.1176 28.9625 35.6376 25.8275 36.4001 23.5375C36.8276 22.255 37.3101 21.305 37.7851 20.7025C38.2726 20.085 38.6076 20 38.7501 20C38.8926 20 39.2301 20.085 39.7151 20.7025C40.1901 21.305 40.6726 22.2525 41.1001 23.5375C41.8626 25.8275 42.3826 28.9625 42.4826 32.5H35.0176ZM34.0301 22.75C34.2976 21.9425 34.6051 21.195 34.9476 20.5325C32.2854 21.2988 29.9167 22.8514 28.152 24.9869C26.3872 27.1223 25.3087 29.7411 25.0576 32.5H32.5176C32.6176 28.75 33.1676 25.335 34.0276 22.75M43.4726 22.75C43.2257 21.9874 42.918 21.2459 42.5526 20.5325C45.2153 21.2984 47.5845 22.8508 49.3497 24.9863C51.115 27.1218 52.1939 29.7408 52.4451 32.5H44.9826C44.8826 28.75 44.3326 25.335 43.4726 22.75ZM44.9826 35H52.4451C52.1939 37.7592 51.115 40.3782 49.3497 42.5137C47.5845 44.6492 45.2153 46.2016 42.5526 46.9675C42.8976 46.305 43.2026 45.5575 43.4726 44.7525C44.3351 42.165 44.8826 38.7525 44.9826 35ZM39.7151 46.7975C39.2301 47.415 38.8926 47.5 38.7501 47.5C38.6076 47.5 38.2726 47.415 37.7851 46.7975C37.3101 46.195 36.8276 45.2475 36.4001 43.96C35.6376 41.6725 35.1176 38.535 35.0176 35H42.4826C42.3826 38.5375 41.8626 41.6725 41.1001 43.96C40.6726 45.245 40.1901 46.195 39.7151 46.7975ZM25.0576 35C25.3087 37.7589 26.3872 40.3777 28.152 42.5131C29.9167 44.6486 32.2854 46.2012 34.9476 46.9675C34.5832 46.2548 34.2764 45.5141 34.0301 44.7525C33.1651 42.165 32.6176 38.7525 32.5176 35H25.0576Z" fill="white"/>
</svg>
