<svg width="45" height="61" viewBox="0 0 45 61" fill="none" xmlns="http://www.w3.org/2000/svg">
<path d="M11.109 38.7181C10.6881 38.7181 10.2844 38.5432 9.98679 38.2319C9.68917 37.9206 9.52197 37.4983 9.52197 37.058C9.52197 36.6177 9.68917 36.1955 9.98679 35.8842C10.2844 35.5728 10.6881 35.3979 11.109 35.3979H33.3268C33.7477 35.3979 34.1513 35.5728 34.4489 35.8842C34.7465 36.1955 34.9137 36.6177 34.9137 37.058C34.9137 37.4983 34.7465 37.9206 34.4489 38.2319C34.1513 38.5432 33.7477 38.7181 33.3268 38.7181H11.109ZM11.109 47.0185C10.6881 47.0185 10.2844 46.8436 9.98679 46.5323C9.68917 46.2209 9.52197 45.7987 9.52197 45.3584C9.52197 44.9181 9.68917 44.4959 9.98679 44.1846C10.2844 43.8732 10.6881 43.6983 11.109 43.6983H33.3268C33.7477 43.6983 34.1513 43.8732 34.4489 44.1846C34.7465 44.4959 34.9137 44.9181 34.9137 45.3584C34.9137 45.7987 34.7465 46.2209 34.4489 46.5323C34.1513 46.8436 33.7477 47.0185 33.3268 47.0185H11.109Z" fill="white"/>
<path fill-rule="evenodd" clip-rule="evenodd" d="M25.979 0.536377H4.76096C3.49827 0.536377 2.2873 1.06108 1.39445 1.99505C0.501599 2.92903 0 4.19577 0 5.5166V55.3189C0 56.6397 0.501599 57.9065 1.39445 58.8404C2.2873 59.7744 3.49827 60.2991 4.76096 60.2991H39.6746C40.9373 60.2991 42.1483 59.7744 43.0411 58.8404C43.934 57.9065 44.4356 56.6397 44.4356 55.3189V21.128C44.4353 19.8811 43.9879 18.6798 43.1819 17.7613L29.4894 2.14997C29.0431 1.64114 28.5006 1.23494 27.8963 0.957155C27.292 0.679372 26.639 0.536079 25.979 0.536377ZM3.17397 5.5166C3.17397 5.07633 3.34117 4.65408 3.63879 4.34275C3.93641 4.03143 4.34006 3.85653 4.76096 3.85653H25.979C26.1992 3.85628 26.417 3.90397 26.6186 3.99657C26.8203 4.08916 27.0013 4.22465 27.1501 4.39439L40.8427 20.0057C41.1117 20.3117 41.2612 20.7122 41.2616 21.128V55.3189C41.2616 55.7592 41.0944 56.1814 40.7968 56.4927C40.4992 56.8041 40.0955 56.979 39.6746 56.979H4.76096C4.34006 56.979 3.93641 56.8041 3.63879 56.4927C3.34117 56.1814 3.17397 55.7592 3.17397 55.3189V5.5166Z" fill="white"/>
<path d="M26.9788 4.1886V19.7933H41.8964" fill="white"/>
<path d="M26.9788 4.1886V19.7933H41.8964" stroke="#DB4343" stroke-width="1.2" stroke-linecap="round" stroke-linejoin="round"/>
<path d="M16.2952 17.5787C16.7484 17.5932 17.1998 17.5123 17.6227 17.3409C18.0455 17.1695 18.4311 16.911 18.7566 16.5808C19.0821 16.2505 19.3409 15.8553 19.5177 15.4184C19.6944 14.9816 19.7855 14.5121 19.7855 14.0377C19.7855 13.5634 19.6944 13.0939 19.5177 12.657C19.3409 12.2202 19.0821 11.8249 18.7566 11.4947C18.4311 11.1644 18.0455 10.9059 17.6227 10.7345C17.1998 10.5631 16.7484 10.4823 16.2952 10.4968C15.4153 10.525 14.5806 10.9104 13.9678 11.5714C13.3549 12.2323 13.0122 13.1169 13.0122 14.0377C13.0122 14.9585 13.3549 15.8431 13.9678 16.5041C14.5806 17.1651 15.4153 17.5505 16.2952 17.5787Z" fill="white"/>
<path fill-rule="evenodd" clip-rule="evenodd" d="M23.0621 25.2515C23.0621 21.4865 20.031 18.7606 16.2921 18.7606C12.5531 18.7606 9.52197 21.4831 9.52197 25.2515V27.0245C9.52281 27.3374 9.64223 27.6372 9.85404 27.8581C10.0659 28.0791 10.3528 28.2031 10.6519 28.2031H21.9354C22.234 28.2023 22.5201 28.0778 22.7312 27.8569C22.9423 27.6361 23.0613 27.3368 23.0621 27.0245V25.2515Z" fill="white"/>
</svg>
