<svg width="60" height="61" viewBox="0 0 60 61" fill="none" xmlns="http://www.w3.org/2000/svg">
<path fill-rule="evenodd" clip-rule="evenodd" d="M45 21.078C46.9383 21.6557 48.3333 21.8499 48.3333 21.8499V16.8697H51.6667C53.8768 16.8697 55.9964 15.9952 57.5592 14.4386C59.122 12.8819 60 10.7707 60 8.5693C60 6.3679 59.122 4.25667 57.5592 2.70005C55.9964 1.14342 53.8768 0.268921 51.6667 0.268921H42.06C39.7455 0.268921 37.5259 1.1847 35.8893 2.81479C34.2527 4.44489 33.3333 6.65577 33.3333 8.96108C33.3333 16.4613 40.58 19.7615 45 21.078ZM56.6667 8.5693C56.6667 9.89014 56.1399 11.1569 55.2022 12.0909C54.2645 13.0248 52.9927 13.5495 51.6667 13.5495H45V17.5918C44.0857 17.2824 43.1931 16.9125 42.3283 16.4845C39.0233 14.8344 36.6667 12.4871 36.6667 8.96108C36.6667 7.53633 37.2349 6.16994 38.2463 5.1625C39.2578 4.15505 40.6296 3.58907 42.06 3.58907H51.6667C52.9927 3.58907 54.2645 4.11377 55.2022 5.04775C56.1399 5.98172 56.6667 7.24846 56.6667 8.5693ZM14.695 20.1782C12.5109 20.1029 10.4439 19.1756 8.93985 17.5963C7.43578 16.0171 6.61505 13.9123 6.65463 11.7359C6.69421 9.55942 7.59092 7.48564 9.15143 5.96165C10.7119 4.43767 12.8112 3.58557 14.9967 3.58907H20.2783C22.4147 3.58907 24.4635 4.43437 25.9741 5.939C27.4847 7.44363 28.3333 9.48435 28.3333 11.6122C28.3333 18.3222 22.2833 21.3901 18.3333 22.6799C16.42 23.3041 15 23.51 15 23.51V20.1898L14.695 20.1782ZM18.3333 16.9875L14.8167 16.8614C13.4951 16.8328 12.2388 16.2838 11.3228 15.3345C10.4068 14.3853 9.90577 13.1132 9.92936 11.7968C9.95295 10.4804 10.4993 9.22698 11.4487 8.31092C12.3981 7.39486 13.6733 6.89084 14.995 6.90922H20.2767C20.8969 6.90901 21.511 7.03049 22.0841 7.26674C22.6571 7.50299 23.1778 7.84938 23.6165 8.28611C24.0551 8.72285 24.403 9.24137 24.6404 9.81208C24.8778 10.3828 25 10.9945 25 11.6122C25 14.7913 22.9717 16.8747 20.1267 18.3521C19.5267 18.6642 18.9183 18.9298 18.3333 19.1556V16.9875ZM36.6667 30.1503C36.6667 33.8191 33.6833 36.7906 30 36.7906C26.3167 36.7906 23.3333 33.8191 23.3333 30.1503C23.3333 26.4815 26.3167 23.51 30 23.51C33.6833 23.51 36.6667 26.4815 36.6667 30.1503ZM33.3333 30.1503C33.3333 31.0308 32.9821 31.8753 32.357 32.498C31.7319 33.1206 30.8841 33.4704 30 33.4704C29.1159 33.4704 28.2681 33.1206 27.643 32.498C27.0179 31.8753 26.6667 31.0308 26.6667 30.1503C26.6667 29.2697 27.0179 28.4252 27.643 27.8026C28.2681 27.1799 29.1159 26.8301 30 26.8301C30.8841 26.8301 31.7319 27.1799 32.357 27.8026C32.9821 28.4252 33.3333 29.2697 33.3333 30.1503ZM21.6667 33.4704C21.6667 37.1392 18.6833 40.1107 15 40.1107C11.3167 40.1107 8.33333 37.1392 8.33333 33.4704C8.33333 29.8017 11.3167 26.8301 15 26.8301C18.6833 26.8301 21.6667 29.8017 21.6667 33.4704ZM18.3333 33.4704C18.3333 34.351 17.9821 35.1955 17.357 35.8181C16.7319 36.4408 15.8841 36.7906 15 36.7906C14.1159 36.7906 13.2681 36.4408 12.643 35.8181C12.0179 35.1955 11.6667 34.351 11.6667 33.4704C11.6667 32.5899 12.0179 31.7454 12.643 31.1227C13.2681 30.5001 14.1159 30.1503 15 30.1503C15.8841 30.1503 16.7319 30.5001 17.357 31.1227C17.9821 31.7454 18.3333 32.5899 18.3333 33.4704ZM0 50.9776C0 45.9575 9.99333 43.4309 15 43.4309C15.975 43.4309 17.14 43.5272 18.3833 43.7181C20.6183 42.0862 24.7117 40.1107 30 40.1107C35.2883 40.1107 39.3817 42.0862 41.6183 43.7181C42.7368 43.5383 43.8672 43.4423 45 43.4309C50.0067 43.4309 60 45.9592 60 50.9759V60.0317H0V50.9776ZM26.0867 50.1094C26.6667 50.6472 26.6667 50.9278 26.6667 50.9759V56.7115H3.33333V50.9759C3.33333 50.9261 3.33333 50.6472 3.91333 50.1094C4.51833 49.5466 5.51667 48.9473 6.87333 48.3995C9.59333 47.3038 12.9167 46.751 15 46.751C17.0833 46.751 20.4067 47.3038 23.1267 48.3995C24.4833 48.9473 25.4817 49.5466 26.0867 50.1094ZM36.9033 44.8519C34.7242 43.9123 32.3745 43.4286 30 43.4309C27.24 43.4309 24.8933 44.0717 23.0983 44.8519C26.79 46.087 30 48.1322 30 50.9776C30 48.1322 33.21 46.0887 36.9033 44.8519ZM56.6667 50.9776C56.6667 50.9278 56.6667 50.6472 56.0867 50.1094C55.4817 49.5466 54.4833 48.9473 53.1267 48.3995C50.4067 47.3038 47.0833 46.751 45 46.751C42.9167 46.751 39.5933 47.3038 36.8733 48.3995C35.5167 48.9473 34.5183 49.5466 33.9133 50.1094C33.3333 50.6472 33.3333 50.9278 33.3333 50.9759V56.7115H56.6667V50.9776ZM45 40.1107C48.6833 40.1107 51.6667 37.1392 51.6667 33.4704C51.6667 29.8017 48.6833 26.8301 45 26.8301C41.3167 26.8301 38.3333 29.8017 38.3333 33.4704C38.3333 37.1392 41.3167 40.1107 45 40.1107ZM45 36.7906C45.8841 36.7906 46.7319 36.4408 47.357 35.8181C47.9821 35.1955 48.3333 34.351 48.3333 33.4704C48.3333 32.5899 47.9821 31.7454 47.357 31.1227C46.7319 30.5001 45.8841 30.1503 45 30.1503C44.1159 30.1503 43.2681 30.5001 42.643 31.1227C42.0179 31.7454 41.6667 32.5899 41.6667 33.4704C41.6667 34.351 42.0179 35.1955 42.643 35.8181C43.2681 36.4408 44.1159 36.7906 45 36.7906Z" fill="white"/>
</svg>
